<?xml version="1.0" encoding="utf-8"?>
<!-- Generator: Adobe Illustrator 27.4.1, SVG Export Plug-In . SVG Version: 6.00 Build 0)  -->
<svg version="1.1" id="Layer_1" xmlns="http://www.w3.org/2000/svg" xmlns:xlink="http://www.w3.org/1999/xlink" x="0px" y="0px"
	 viewBox="0 0 3000 2000" style="enable-background:new 0 0 3000 2000;" xml:space="preserve">
<g>
	<g>
		<path d="M1071,974c-1.4,0.2-2.9,0.6-4.5,0.7c-47.5,2.9-95,5.9-142.6,8.8c-3.7,0.2-7.3,1-10.9,1.1c-12.1,0.3-23.9,1.4-36.1-3
			c-20.3-7.3-41.6-11.7-62.1-18.6c-20.6-7-39.2-18.2-56-32.2c-23.6-19.6-35.9-45.1-38.5-75.3c-5-59.9,19.6-104.6,70.6-135.2
			c25.8-15.5,54.1-23.7,83.9-27.1c3.3-0.4,6.5-0.8,10.8-1.3c0-18.2,0-36,0-54.5c13.5,0,26,0,39.6,0c0,17.9,0,35.8,0,54.1
			c9.9,1.3,18.8,2.2,27.6,3.7c31.7,5.3,61,16.7,86.2,37.1c30.5,24.7,47.6,56.8,51.2,95.9c0.2,2.6,0.2,5.3,0.2,8c0,1-0.4,1.9-0.8,3.5
			c-32.5,0-65,0-98.5,0c-2.4-19-10.5-34.9-26.5-45.8c-11.4-7.8-24-12.3-38.5-13.4c0,40.2,0,79.7,0,120c9.5,2.3,18.8,4.6,28.1,6.8
			c22.7,5.5,44.8,12.8,65.6,23.5c17.3,8.9,33,20.1,46.1,34.6c1.8,2,3.4,4.1,5,6.2C1071.1,971.8,1070.9,972.6,1071,974z M885.5,780.4
			c-15.1,1.4-27.5,6.4-38.9,14.4c-22.5,15.9-31.6,56.2,1,77.9c9.6,6.4,20.7,10.4,31.2,15.3c1.9,0.9,4.2,0.7,6.6,1
			C885.5,852.6,885.5,817.1,885.5,780.4z"/>
		<path d="M1969,922c35.3-2.3,71.1-4.5,107-6.8c0.4,0.5,0.9,1,1.3,1.5c-14.7,15.5-24,33.2-24.7,55.2c51.8,0,103,0,154.1,0
			c3.9-18.5-4.7-37.9-28.8-63.2c34.8-2.3,68.4-4.5,102.6-6.7c23.6,41.7,25.5,86.9,23.6,133.9c-83.7,0-167.1,0-250.7,0
			c-2.3,8.4-0.4,15.5,0.7,22.6c5.9,37.7,33.3,63.5,71.3,67.1c13.7,1.3,27.3,0.4,40.5-3.8c17.3-5.5,30.6-15.8,38.9-32.2
			c0.9-1.8,1.8-3.5,3.3-6.4c30.8,2,61.9,4,93.9,6.1c-0.5,2.9-0.6,4.8-1,6.6c-9.5,36-31.1,62.8-62.9,81.7
			c-23.6,14-49.5,21.4-76.6,23.8c-29,2.6-58,1.8-86.2-6.2c-53.7-15.2-91.4-48.8-110.5-101.1c-19.4-53.4-19-107.6-0.9-161.6
			c0.8-2.5,1.8-5,2.9-7.4C1967.1,924.1,1967.9,923.4,1969,922z"/>
		<path d="M955.6,1256.9c-14.1,0-26.3,0-39.6,0c0-18.3,0-36.2,0-54c-15.8-2.4-30.6-4.2-45.3-7c-21.4-4.1-41.8-11.4-60.6-22.5
			c-43.3-25.6-66.6-63.9-72.1-113.5c-0.7-5.9-0.9-11.9-1.3-17.7c7.2-2.3,84.7-3,100.5-0.9c4.9,45.6,34.3,65.9,78,72.7
			c1.2-10.7,0.5-20.8,0.6-30.9c0.1-10.3,0-20.7,0-31c0-10,0-20,0-30c0-10.3,0-20.6,0-31.8c4.6-0.6,8.8-1.5,12.9-1.8
			c48.2-3,96.4-5.9,144.6-8.9c8-0.5,16-0.9,23.9-1.8c4.6-0.5,7.4,1.2,9.9,5c9.4,14.5,15.5,30.2,18.4,47.1
			c3.5,20.6,2.6,41.2-2.5,61.4c-7.8,31-25,55.6-50.9,74.2c-24.6,17.7-52.3,27.5-81.9,32.4c-11.1,1.8-22.4,3-34.7,4.6
			C955.6,1220.3,955.6,1238.1,955.6,1256.9z M956,1113.3c15.3-1.9,28.4-6.4,40.3-14c8.5-5.5,15.5-12.5,20.3-21.6
			c9.4-17.8,7.4-39.7-5.3-53.1c-14.8-15.6-34.5-21.5-55.2-27.6C956,1036.3,956,1074.4,956,1113.3z"/>
		<path d="M1560.3,948.2c36-2.3,71.8-4.6,108.5-6.9c-0.9,3.2-1.3,5-2,6.8c-14.1,37.2-14.2,75-4.1,112.9c2.7,10.1,7.6,20,13.3,28.9
			c17.1,26.5,48.2,37.8,78.6,29.2c23.6-6.6,37.7-22.8,45-45.5c1.3-4.1,2.1-8.3,3.3-13.1c31.8,0,63.6,0,96.2,0
			c0,10.6-1.6,20.6-4.2,30.5c-15.3,57.8-53.6,92.5-110.7,106.2c-40.3,9.7-80.9,8.5-120.1-5.7c-53.3-19.3-86.8-57.9-102.9-111.7
			c-12.3-41.1-12.5-82.7-3.3-124.5C1558.5,952.9,1559.4,950.8,1560.3,948.2z"/>
		<path d="M1268.9,961.5c-34,2.2-67.4,4.3-100.7,6.4c-2.3-7.9-3.1-252.3-1.1-267.9c7.2-2.1,90.5-2.5,101.7-0.4
			C1268.9,786.2,1268.9,873,1268.9,961.5z"/>
		<path d="M1529.8,944.6c13.5-45.9,38.4-81,78.7-104.5c23.5-13.7,49.1-20.5,76-22.5c29.1-2.2,58-0.2,85.8,9.5
			c42.9,15,74.1,42.4,90.4,85.6c0.8,2.2,1.5,4.4,2.2,6.6c0.3,0.9,0.3,1.9,0.5,3.4c-4,0.6-7.9,1.4-11.9,1.6
			c-26.9,1.7-53.8,3.3-80.8,5c-4.6,0.3-8-0.5-10.8-4.9c-22.9-36.2-80.2-36.1-107-4.9c-2.8,3.3-6,6.5-7.8,10.4
			c-3.1,6.8-8.4,8.5-15.2,8.9c-30.9,1.8-61.8,3.9-92.7,5.9C1535.3,944.7,1533.3,944.6,1529.8,944.6z"/>
		<path d="M1382.3,959.6c33.9-2.1,67.3-4.3,101.4-6.4c0,81.3,0,161.3,0,241.9c-33.9,0-67.3,0-101.4,0
			C1382.3,1116.5,1382.3,1038.5,1382.3,959.6z"/>
		<path d="M1299,1195.1c-34.2,0-67.7,0-101.9,0c0-74.4,0-148.5,0-223.7c33.8-2.1,67.5-4.2,101.9-6.4
			C1299,1042.2,1299,1118.1,1299,1195.1z"/>
		<path d="M1938.7,918.6c1.3-3.4,1.9-5.6,2.9-7.6c27.1-53.3,70.4-83.9,129.4-92.1c35.6-4.9,70.4-1.7,103.9,12.1
			c29.1,12,52.5,31.2,69.7,57.7c1.8,2.7,3.2,5.6,5.3,9.5c-9,0.8-16.8,1.7-24.6,2.2c-24.6,1.6-49.2,3.2-73.8,4.4
			c-3.7,0.2-7.9-0.8-11.3-2.4c-29.1-13.5-57.2-12.3-84.6,4.9c-3.5,2.2-7.8,3.9-11.8,4.2c-16.2,1.5-32.5,2.4-48.8,3.4
			C1976.9,916.2,1958.6,917.3,1938.7,918.6z"/>
		<path d="M1352.4,821.9c33.8,0,67,0,100.1,0c2.1,7.2,2.8,112.7,0.7,127.8c-33.2,2.1-66.6,4.3-100.8,6.4
			C1352.4,911.4,1352.4,867.3,1352.4,821.9z"/>
		<path d="M1403.2,774.2c-14.1-0.4-26.3-4.8-36.9-13.8c-27.1-23-24.4-62.2,5.8-81.5c18.6-11.9,38.6-12.6,57.9-2.3
			c20,10.6,30.1,27.6,28.1,50.8c-1.6,18.8-16.9,37.3-36.5,43.3C1415.8,772.5,1409.4,773,1403.2,774.2z"/>
		<path d="M1794.8,933.1c33.3-2.1,65.7-4.2,98.5-6.2c5.1,10.8,4.9,22.1,6.4,33c-7.4,2.2-80.2,2.9-96.1,1
			C1800.8,952.3,1798,943.5,1794.8,933.1z"/>
	</g>
</g>
</svg>
